<svg xmlns="http://www.w3.org/2000/svg" viewBox="0 0 1400 794" width="1400" height="794" font-family="'SF Mono','Fira Code','Consolas',monospace">
<defs><linearGradient id="bashbg" x1="0" y1="0" x2="0" y2="1"><stop offset="0" stop-color="#1b2029"/><stop offset="1" stop-color="#12161d"/></linearGradient><linearGradient id="psbg" x1="0" y1="0" x2="0" y2="1"><stop offset="0" stop-color="#012456"/><stop offset="1" stop-color="#011736"/></linearGradient></defs>
<rect width="1400" height="794" fill="#0b0d12"/>
<text x="700" y="32" text-anchor="middle" fill="#cdd5e0" font-size="18" font-weight="600">L-007 · capstone · pwd + ls + cd + mkdir + rm in two shells</text>
<rect x="20" y="70" width="670" height="664" rx="12" ry="12" fill="url(#bashbg)" stroke="#2a3140" stroke-width="1.5"/>
<rect x="20" y="70" width="670" height="40" rx="12" ry="12" fill="#262c38"/>
<rect x="20" y="100" width="670" height="10" fill="#262c38"/>
<circle cx="42" cy="90" r="7" fill="#ff5f57"/>
<circle cx="62" cy="90" r="7" fill="#febc2e"/>
<circle cx="82" cy="90" r="7" fill="#28c840"/>
<text x="355" y="96" text-anchor="middle" fill="#9aa3b2" font-size="13">Bash · macOS / Linux / WSL</text>
<rect x="21" y="678" width="668" height="55" fill="#141923"/>
<text x="36" y="698" fill="#9aa3b2" font-size="13">Bash: mkdir, touch, rm -r are separate programs. Creation is silent; removal is recursive</text>
<text x="36" y="716" fill="#9aa3b2" font-size="13">when -r is passed.</text>
<rect x="710" y="70" width="670" height="664" rx="12" ry="12" fill="url(#psbg)" stroke="#1c4d8c" stroke-width="1.5"/>
<rect x="710" y="70" width="670" height="40" rx="12" ry="12" fill="#0a3a73"/>
<rect x="710" y="100" width="670" height="10" fill="#0a3a73"/>
<circle cx="732" cy="90" r="7" fill="#ff5f57"/>
<circle cx="752" cy="90" r="7" fill="#febc2e"/>
<circle cx="772" cy="90" r="7" fill="#28c840"/>
<text x="1045" y="96" text-anchor="middle" fill="#cfd9ee" font-size="13">PowerShell · Windows</text>
<rect x="711" y="678" width="668" height="55" fill="#031a3a"/>
<text x="726" y="698" fill="#cfd9ee" font-size="13">PowerShell: mkdir wraps New-Item -ItemType Directory. Use New-Item for files, Remove-Item</text>
<text x="726" y="716" fill="#cfd9ee" font-size="13">-Recurse to delete trees.</text>
<g font-size="16" xml:space="preserve">
<text x="42" y="146" fill="#6aa7ff">learner@laptop</text>
<text x="176" y="146" fill="#7e8697">:</text>
<text x="186" y="146" fill="#c792ea">~</text>
<text x="196" y="146" fill="#7e8697">$ </text>
<text x="215" y="146" fill="#e6edf3">pwd</text>
<text x="42" y="174" fill="#7ee787">/home/learner</text>
<text x="42" y="202" fill="#6aa7ff">learner@laptop</text>
<text x="176" y="202" fill="#7e8697">:</text>
<text x="186" y="202" fill="#c792ea">~</text>
<text x="196" y="202" fill="#7e8697">$ </text>
<text x="215" y="202" fill="#e6edf3">mkdir </text>
<text x="273" y="202" fill="#ffab70">practice-cli</text>
<text x="42" y="230" fill="#8b94a5">(no output)</text>
<text x="42" y="258" fill="#6aa7ff">learner@laptop</text>
<text x="176" y="258" fill="#7e8697">:</text>
<text x="186" y="258" fill="#c792ea">~</text>
<text x="196" y="258" fill="#7e8697">$ </text>
<text x="215" y="258" fill="#e6edf3">ls</text>
<text x="42" y="286" fill="#7ee787">Desktop  Documents  practice-cli</text>
<text x="42" y="314" fill="#6aa7ff">learner@laptop</text>
<text x="176" y="314" fill="#7e8697">:</text>
<text x="186" y="314" fill="#c792ea">~</text>
<text x="196" y="314" fill="#7e8697">$ </text>
<text x="215" y="314" fill="#e6edf3">cd </text>
<text x="244" y="314" fill="#ffab70">practice-cli</text>
<text x="42" y="342" fill="#8b94a5">(no output)</text>
<text x="42" y="370" fill="#6aa7ff">learner@laptop</text>
<text x="176" y="370" fill="#7e8697">:</text>
<text x="186" y="370" fill="#c792ea">~</text>
<text x="196" y="370" fill="#7e8697">$ </text>
<text x="215" y="370" fill="#e6edf3">touch </text>
<text x="273" y="370" fill="#ffab70">hello.txt</text>
<text x="42" y="398" fill="#8b94a5">(no output)</text>
<text x="42" y="426" fill="#6aa7ff">learner@laptop</text>
<text x="176" y="426" fill="#7e8697">:</text>
<text x="186" y="426" fill="#c792ea">~</text>
<text x="196" y="426" fill="#7e8697">$ </text>
<text x="215" y="426" fill="#e6edf3">ls</text>
<text x="42" y="454" fill="#7ee787">hello.txt</text>
<text x="42" y="482" fill="#6aa7ff">learner@laptop</text>
<text x="176" y="482" fill="#7e8697">:</text>
<text x="186" y="482" fill="#c792ea">~</text>
<text x="196" y="482" fill="#7e8697">$ </text>
<text x="215" y="482" fill="#e6edf3">cd </text>
<text x="244" y="482" fill="#ffab70">..</text>
<text x="42" y="510" fill="#8b94a5">(no output)</text>
<text x="42" y="538" fill="#6aa7ff">learner@laptop</text>
<text x="176" y="538" fill="#7e8697">:</text>
<text x="186" y="538" fill="#c792ea">~</text>
<text x="196" y="538" fill="#7e8697">$ </text>
<text x="215" y="538" fill="#e6edf3">rm -r </text>
<text x="273" y="538" fill="#ffab70">practice-cli</text>
<text x="42" y="566" fill="#8b94a5">(no output)</text>
<text x="42" y="594" fill="#6aa7ff">learner@laptop</text>
<text x="176" y="594" fill="#7e8697">:</text>
<text x="186" y="594" fill="#c792ea">~</text>
<text x="196" y="594" fill="#7e8697">$ </text>
<text x="215" y="594" fill="#e6edf3">ls</text>
<text x="42" y="622" fill="#7ee787">Desktop  Documents  Downloads</text>
<text x="42" y="650" fill="#6aa7ff">learner@laptop</text>
<text x="176" y="650" fill="#7e8697">:</text>
<text x="186" y="650" fill="#c792ea">~</text>
<text x="196" y="650" fill="#7e8697">$ </text>
<rect x="216" y="635" width="11" height="20" fill="#e6edf3"><animate attributeName="opacity" values="1;0;1" dur="1s" repeatCount="indefinite"/></rect>
<text x="732" y="146" fill="#cfd9ee">PS </text>
<text x="761" y="146" fill="#9bb4dd">C:\Users\learner</text>
<text x="915" y="146" fill="#cfd9ee">&gt; </text>
<text x="934" y="146" fill="#ffffff">pwd</text>
<text x="732" y="174" fill="#7ee787">C:\Users\learner</text>
<text x="732" y="202" fill="#cfd9ee">PS </text>
<text x="761" y="202" fill="#9bb4dd">C:\Users\learner</text>
<text x="915" y="202" fill="#cfd9ee">&gt; </text>
<text x="934" y="202" fill="#ffffff">mkdir </text>
<text x="992" y="202" fill="#ffab70">practice-cli</text>
<text x="732" y="230" fill="#7ee787">Directory: C:\Users\learner</text>
<text x="732" y="258" fill="#cfd9ee">PS </text>
<text x="761" y="258" fill="#9bb4dd">C:\Users\learner</text>
<text x="915" y="258" fill="#cfd9ee">&gt; </text>
<text x="934" y="258" fill="#ffffff">ls</text>
<text x="732" y="286" fill="#7ee787">Desktop  Documents  practice-cli</text>
<text x="732" y="314" fill="#cfd9ee">PS </text>
<text x="761" y="314" fill="#9bb4dd">C:\Users\learner</text>
<text x="915" y="314" fill="#cfd9ee">&gt; </text>
<text x="934" y="314" fill="#ffffff">cd </text>
<text x="963" y="314" fill="#ffab70">practice-cli</text>
<text x="732" y="342" fill="#8b94a5">(no output)</text>
<text x="732" y="370" fill="#cfd9ee">PS </text>
<text x="761" y="370" fill="#9bb4dd">C:\Users\learner</text>
<text x="915" y="370" fill="#cfd9ee">&gt; </text>
<text x="934" y="370" fill="#ffffff">New-Item </text>
<text x="1020" y="370" fill="#ffab70">hello.txt</text>
<text x="732" y="398" fill="#7ee787">Mode  Name -----  hello.txt</text>
<text x="732" y="426" fill="#cfd9ee">PS </text>
<text x="761" y="426" fill="#9bb4dd">C:\Users\learner</text>
<text x="915" y="426" fill="#cfd9ee">&gt; </text>
<text x="934" y="426" fill="#ffffff">ls</text>
<text x="732" y="454" fill="#7ee787">hello.txt</text>
<text x="732" y="482" fill="#cfd9ee">PS </text>
<text x="761" y="482" fill="#9bb4dd">C:\Users\learner</text>
<text x="915" y="482" fill="#cfd9ee">&gt; </text>
<text x="934" y="482" fill="#ffffff">cd </text>
<text x="963" y="482" fill="#ffab70">..</text>
<text x="732" y="510" fill="#8b94a5">(no output)</text>
<text x="732" y="538" fill="#cfd9ee">PS </text>
<text x="761" y="538" fill="#9bb4dd">C:\Users\learner</text>
<text x="915" y="538" fill="#cfd9ee">&gt; </text>
<text x="934" y="538" fill="#ffffff">Remove-Item -Recurse </text>
<text x="1136" y="538" fill="#ffab70">practice-cli</text>
<text x="732" y="566" fill="#8b94a5">(no output)</text>
<text x="732" y="594" fill="#cfd9ee">PS </text>
<text x="761" y="594" fill="#9bb4dd">C:\Users\learner</text>
<text x="915" y="594" fill="#cfd9ee">&gt; </text>
<text x="934" y="594" fill="#ffffff">ls</text>
<text x="732" y="622" fill="#7ee787">Desktop  Documents  Downloads</text>
<text x="732" y="650" fill="#cfd9ee">PS </text>
<text x="761" y="650" fill="#9bb4dd">C:\Users\learner</text>
<text x="915" y="650" fill="#cfd9ee">&gt; </text>
<rect x="935" y="635" width="11" height="20" fill="#ffffff"><animate attributeName="opacity" values="1;0;1" dur="1s" repeatCount="indefinite"/></rect>
</g>
<g font-size="13" fill="#8b94a5">
<text x="674" y="146" text-anchor="end">1. Confirm start</text>
<text x="1364" y="146" text-anchor="end">1. Confirm start</text>
<text x="674" y="202" text-anchor="end">2. Make a directory</text>
<text x="1364" y="202" text-anchor="end">2. Make a directory</text>
<text x="674" y="258" text-anchor="end">3. Confirm it exists</text>
<text x="1364" y="258" text-anchor="end">3. Confirm it exists</text>
<text x="674" y="314" text-anchor="end">4. Walk into it</text>
<text x="1364" y="314" text-anchor="end">4. Walk into it</text>
<text x="674" y="370" text-anchor="end">5. Create a file</text>
<text x="1364" y="370" text-anchor="end">5. Create a file</text>
<text x="674" y="426" text-anchor="end">6. Confirm the file</text>
<text x="1364" y="426" text-anchor="end">6. Confirm the file</text>
<text x="674" y="482" text-anchor="end">7. Walk back up</text>
<text x="1364" y="482" text-anchor="end">7. Walk back up</text>
<text x="674" y="538" text-anchor="end">8. Remove the tree</text>
<text x="1364" y="538" text-anchor="end">8. Remove the tree</text>
<text x="674" y="594" text-anchor="end">9. Confirm it is gone</text>
<text x="1364" y="594" text-anchor="end">9. Confirm it is gone</text>
</g>
<rect x="20" y="754" width="1360" height="34" fill="#141923"/>
<text x="700" y="778" text-anchor="middle" fill="#9aa3b2" font-size="14">Week-one capstone. Same six verbs, two shells. The prompt path stays synchronised across both columns.</text>
</svg>