<svg xmlns="http://www.w3.org/2000/svg" viewBox="0 0 1400 440" width="1400" height="440" font-family="'SF Mono','Fira Code','Consolas',monospace">
<defs><linearGradient id="bashbg" x1="0" y1="0" x2="0" y2="1"><stop offset="0" stop-color="#1b2029"/><stop offset="1" stop-color="#12161d"/></linearGradient><linearGradient id="psbg" x1="0" y1="0" x2="0" y2="1"><stop offset="0" stop-color="#012456"/><stop offset="1" stop-color="#011736"/></linearGradient></defs>
<rect width="1400" height="440" fill="#0b0d12"/>
<text x="700" y="40" text-anchor="middle" fill="#cdd5e0" font-size="19" font-weight="600" font-family="-apple-system,Arial,sans-serif">L-002 · the prompt is a sign · Bash vs PowerShell</text>
<rect x="20" y="80" width="670" height="290" rx="12" ry="12" fill="url(#bashbg)" stroke="#2a3140" stroke-width="1.5"/>
<rect x="20" y="80" width="670" height="40" rx="12" ry="12" fill="#262c38"/>
<rect x="20" y="110" width="670" height="10" fill="#262c38"/>
<circle cx="42" cy="100" r="7" fill="#ff5f57"/>
<circle cx="62" cy="100" r="7" fill="#febc2e"/>
<circle cx="82" cy="100" r="7" fill="#28c840"/>
<text x="355" y="106" text-anchor="middle" fill="#9aa3b2" font-size="13">Bash · macOS / Linux / WSL</text>
<rect x="710" y="80" width="670" height="290" rx="12" ry="12" fill="url(#psbg)" stroke="#1c4d8c" stroke-width="1.5"/>
<rect x="710" y="80" width="670" height="40" rx="12" ry="12" fill="#0a3a73"/>
<rect x="710" y="110" width="670" height="10" fill="#0a3a73"/>
<circle cx="732" cy="100" r="7" fill="#ff5f57"/>
<circle cx="752" cy="100" r="7" fill="#febc2e"/>
<circle cx="772" cy="100" r="7" fill="#28c840"/>
<text x="1045" y="106" text-anchor="middle" fill="#cfd9ee" font-size="13">PowerShell · Windows</text>
<g font-size="28"><text x="60" y="212" fill="#6aa7ff">learner</text><text x="186" y="212" fill="#7e8697">@</text><text x="208" y="212" fill="#f99e9e">laptop</text><text x="310" y="212" fill="#7e8697">:</text><text x="326" y="212" fill="#c792ea">~/projects</text><text x="508" y="212" fill="#ffd666">$</text></g>
<g font-size="28"><text x="750" y="212" fill="#cfd9ee">PS</text><text x="804" y="212" fill="#9bb4dd">C:\Users\learner</text><text x="1090" y="212" fill="#ffd666">&gt;</text></g>
<rect x="20" y="390" width="1360" height="40" fill="#141923"/>
<text x="700" y="418" text-anchor="middle" fill="#9aa3b2" font-size="14" font-family="-apple-system,Arial,sans-serif">Both prompts answer: who, where, and what comes next. Bash packs user@machine:path$; PowerShell compresses to PS path &gt;.</text>
</svg>