<svg xmlns="http://www.w3.org/2000/svg" viewBox="0 0 1400 540" width="1400" height="540" font-family="'SF Mono','Fira Code','Consolas',monospace">
<rect width="1400" height="540" fill="#0b0d12"/>
<text x="700" y="40" text-anchor="middle" fill="#cdd5e0" font-size="19" font-weight="600" font-family="-apple-system,Arial,sans-serif">L-001 · open the terminal · same keystroke, two platforms</text>
<rect x="20" y="80" width="670" height="390" rx="12" ry="12" fill="#1b2029" stroke="#2a3140" stroke-width="1.5"/>
<rect x="20" y="80" width="670" height="40" rx="12" ry="12" fill="#262c38"/>
<rect x="20" y="110" width="670" height="10" fill="#262c38"/>
<circle cx="42" cy="100" r="7" fill="#ff5f57"/>
<circle cx="62" cy="100" r="7" fill="#febc2e"/>
<circle cx="82" cy="100" r="7" fill="#28c840"/>
<text x="355" y="106" text-anchor="middle" fill="#9aa3b2" font-size="13">Bash · macOS / Linux / WSL</text>
<text x="80" y="275" font-size="20" fill="#6aa7ff">learner@laptop</text><text x="250" y="275" font-size="20" fill="#7e8697">:</text><text x="260" y="275" font-size="20" fill="#c792ea">~</text><text x="272" y="275" font-size="20" fill="#7e8697">$</text>
<rect x="710" y="80" width="670" height="390" rx="12" ry="12" fill="#012456" stroke="#1c4d8c" stroke-width="1.5"/>
<rect x="710" y="80" width="670" height="40" rx="12" ry="12" fill="#0a3a73"/>
<rect x="710" y="110" width="670" height="10" fill="#0a3a73"/>
<circle cx="732" cy="100" r="7" fill="#ff5f57"/>
<circle cx="752" cy="100" r="7" fill="#febc2e"/>
<circle cx="772" cy="100" r="7" fill="#28c840"/>
<text x="1045" y="106" text-anchor="middle" fill="#cfd9ee" font-size="13">PowerShell · Windows Terminal</text>
<text x="770" y="275" font-size="20" fill="#cfd9ee">PS </text><text x="805" y="275" font-size="20" fill="#9bb4dd">C:\Users\learner</text><text x="995" y="275" font-size="20" fill="#cfd9ee">&gt;</text>
<rect x="20" y="490" width="1360" height="40" fill="#141923"/>
<text x="700" y="518" text-anchor="middle" fill="#9aa3b2" font-size="14" font-family="-apple-system,Arial,sans-serif">Press Command+Space (macOS), Super (Linux), or Windows key, type &quot;terminal&quot;, and hit Enter.</text>
</svg>