<?xml version="1.0" encoding="UTF-8"?>
<svg viewBox="287 88 913 662" width="913" height="662" xmlns="http://www.w3.org/2000/svg" role="img" aria-labelledby="win-title win-desc">
  <title id="win-title">Windows 11 Start menu with "terminal" typed</title>
  <desc id="win-desc">A Windows 11 desktop with the Start menu open, the word terminal typed into the search box at the top, and the Terminal application highlighted as the best match. An annotation calls out the Windows key shortcut.</desc>
  <defs>
    <linearGradient id="winDesk" x1="0" y1="0" x2="1" y2="1">
      <stop offset="0" stop-color="#2B4A6B"/>
      <stop offset="1" stop-color="#0E2540"/>
    </linearGradient>
    <radialGradient id="winBloom" cx="0.5" cy="0.35" r="0.6">
      <stop offset="0" stop-color="#5FA3D1" stop-opacity="0.55"/>
      <stop offset="1" stop-color="#5FA3D1" stop-opacity="0"/>
    </radialGradient>
    <linearGradient id="startBg" x1="0" y1="0" x2="0" y2="1">
      <stop offset="0" stop-color="#2C2C2C" stop-opacity="0.92"/>
      <stop offset="1" stop-color="#1E1E1E" stop-opacity="0.92"/>
    </linearGradient>
    <filter id="shadowW" x="-20%" y="-20%" width="140%" height="140%">
      <feGaussianBlur in="SourceAlpha" stdDeviation="14"/>
      <feOffset dx="0" dy="6"/>
      <feComponentTransfer><feFuncA type="linear" slope="0.4"/></feComponentTransfer>
      <feMerge><feMergeNode/><feMergeNode in="SourceGraphic"/></feMerge>
    </filter>
    <style>
      .ui { font-family: "Segoe UI", "Segoe UI Variable", system-ui, Arial, sans-serif; }
      .mono { font-family: "Cascadia Mono", Consolas, "Courier New", monospace; }
    </style>
  </defs>

  <rect width="1200" height="750" fill="url(#winDesk)"/>
  <rect width="1200" height="750" fill="url(#winBloom)"/>

  <!-- Start menu panel -->
  <g filter="url(#shadowW)">
    <rect x="350" y="110" width="500" height="540" rx="12" fill="url(#startBg)" stroke="#FFFFFF" stroke-opacity="0.08"/>

    <!-- Search box -->
    <rect x="380" y="140" width="440" height="40" rx="6" fill="#1C1C1C" stroke="#4B4B4B"/>
    <circle cx="402" cy="160" r="8" fill="none" stroke="#9AA0A6" stroke-width="2"/>
    <line x1="408" y1="166" x2="414" y2="172" stroke="#9AA0A6" stroke-width="2" stroke-linecap="round"/>
    <text x="424" y="166" class="ui" font-size="15" fill="#FFFFFF">terminal</text>
    <rect x="492" y="149" width="2" height="22" fill="#FFFFFF">
      <animate attributeName="opacity" values="1;1;0;0;1" keyTimes="0;0.5;0.5;1;1" dur="1s" repeatCount="indefinite"/>
    </rect>

    <!-- Best match section -->
    <text x="380" y="208" class="ui" font-size="11" fill="#BDBDBD" font-weight="600">BEST MATCH</text>

    <rect x="380" y="218" width="440" height="64" rx="6" fill="#2F5FA8"/>
    <rect x="394" y="232" width="36" height="36" rx="6" fill="#1E1E1E"/>
    <text x="402" y="256" class="mono" font-size="16" fill="#50E8B3" font-weight="700">&gt;_</text>
    <text x="442" y="246" class="ui" font-size="14" font-weight="600" fill="#FFFFFF">Terminal</text>
    <text x="442" y="265" class="ui" font-size="12" fill="#D6E2F0">App</text>

    <!-- Apps section -->
    <text x="380" y="310" class="ui" font-size="11" fill="#BDBDBD" font-weight="600">APPS</text>

    <rect x="380" y="320" width="440" height="44" rx="6" fill="#2A2A2A" fill-opacity="0"/>
    <rect x="394" y="330" width="28" height="28" rx="5" fill="#4B4B4B"/>
    <text x="434" y="349" class="ui" font-size="13" fill="#FFFFFF">Terminal (Preview)</text>

    <rect x="394" y="374" width="28" height="28" rx="5" fill="#4B4B4B"/>
    <text x="434" y="393" class="ui" font-size="13" fill="#FFFFFF">Windows PowerShell</text>

    <rect x="394" y="418" width="28" height="28" rx="5" fill="#4B4B4B"/>
    <text x="434" y="437" class="ui" font-size="13" fill="#FFFFFF">Command Prompt</text>

    <!-- User row -->
    <rect x="380" y="600" width="440" height="36" fill="#1A1A1A"/>
    <circle cx="404" cy="618" r="14" fill="#5FA3D1"/>
    <text x="404" y="622" class="ui" font-size="12" font-weight="600" fill="#FFFFFF" text-anchor="middle">L</text>
    <text x="428" y="622" class="ui" font-size="13" fill="#FFFFFF">Learner</text>
  </g>

  <!-- Taskbar -->
  <rect x="0" y="702" width="1200" height="48" fill="#1C1C1E" fill-opacity="0.85"/>
  <g transform="translate(540,712)">
    <rect x="0" y="0" width="28" height="28" rx="4" fill="#0078D4"/>
    <text x="14" y="20" class="ui" font-size="14" font-weight="700" fill="#FFFFFF" text-anchor="middle">⊞</text>
    <rect x="40" y="0" width="28" height="28" rx="4" fill="#FFFFFF" fill-opacity="0.15"/>
    <rect x="80" y="0" width="28" height="28" rx="4" fill="#FFFFFF" fill-opacity="0.15"/>
    <rect x="120" y="0" width="28" height="28" rx="4" fill="#FFFFFF" fill-opacity="0.15"/>
  </g>

  <!-- Keyboard visual -->
  <g transform="translate(870,480)">
    <rect x="0" y="0" width="80" height="60" rx="10" fill="#FFFFFF" fill-opacity="0.95"/>
    <text x="40" y="40" class="ui" font-size="26" font-weight="700" text-anchor="middle" fill="#1F2328">⊞</text>
    <text x="105" y="40" class="ui" font-size="30" font-weight="700" fill="#FFFFFF">+</text>
    <rect x="140" y="0" width="160" height="60" rx="10" fill="#FFFFFF" fill-opacity="0.95"/>
    <text x="220" y="40" class="ui" font-size="18" font-weight="600" text-anchor="middle" fill="#1F2328">type "terminal"</text>
  </g>

  <!-- Annotation -->
  <g>
    <path d="M 820 250 Q 900 300 940 380" stroke="#FFD666" stroke-width="2.5" fill="none" stroke-dasharray="4 4"/>
    <circle cx="820" cy="250" r="5" fill="#FFD666"/>
    <rect x="870" y="380" width="260" height="80" rx="10" fill="#0C1E30" fill-opacity="0.9" stroke="#FFD666" stroke-width="1.5"/>
    <text x="885" y="408" class="ui" font-size="13" font-weight="700" fill="#FFFFFF">Step 2: Windows 11</text>
    <text x="885" y="427" class="ui" font-size="12" fill="#FFFFFF">Press the Windows key,</text>
    <text x="885" y="442" class="ui" font-size="12" fill="#FFFFFF">type "terminal", press Enter.</text>
    <text x="885" y="456" class="ui" font-size="11" fill="#A7C0DC" font-style="italic">Windows Terminal is the default on Windows 11.</text>
  </g>

  <text x="600" y="690" class="ui" font-size="14" fill="#FFFFFF" fill-opacity="0.75" text-anchor="middle">Windows 11 Start menu, launching Windows Terminal from the keyboard</text>
</svg>
